<?xml version="1.0" encoding="UTF-8"?>
<!-- 자동 생성 파일. 고치려면 src/assets/games/soccer/artwork/ 를 고치고 `npm run artwork` 를 돌린다. -->
<svg xmlns="http://www.w3.org/2000/svg" width="20mm" height="22mm" viewBox="0 0 20 22" font-family="Noto Sans KR">
<title>야구 게임판 · 수비 마커 · 달리기 · 실루엣</title>
<g id="pc-art">
<g id="pc-marker-team" fill="#1a1a1a" stroke="none">
<path d="M 7.821 7.166 Q 7.365 6.858 7.081 7.329 L 6.28 8.662 Q 5.997 9.133 5.457 9.237 L 4.13 9.491 Q 3.59 9.595 3.685 10.137 L 3.685 10.137 Q 3.781 10.678 4.324 10.59 L 6.149 10.291 Q 6.691 10.202 7.019 9.76 L 8.24 8.111 Q 8.567 7.669 8.111 7.361 Z" stroke="none" />
<path d="M 7.768 6.708 Q 7.353 6.428 7.074 6.843 L 6.738 7.34 Q 6.459 7.755 6.873 8.034 L 7.661 8.565 Q 8.075 8.845 8.355 8.431 L 8.69 7.933 Q 8.97 7.519 8.555 7.239 Z" stroke="none" />
<circle cx="3.685" cy="10.137" r="0.78" stroke="none" />
<path d="M 7.503 12.449 Q 6.854 12.074 6.513 12.743 L 5.715 14.311 Q 5.375 14.979 4.725 15.353 L 3.288 16.178 Q 2.637 16.552 2.989 17.214 L 2.989 17.214 Q 3.341 17.876 4.013 17.543 L 5.936 16.589 Q 6.608 16.256 7.012 15.625 L 8.225 13.731 Q 8.629 13.099 7.98 12.724 Z" stroke="none" />
<path d="M 3.196 17.602 Q 3.384 17.956 3.737 17.768 L 5.732 16.707 Q 6.086 16.519 5.898 16.166 L 5.485 15.389 Q 5.297 15.036 4.944 15.223 L 2.948 16.284 Q 2.595 16.472 2.783 16.825 Z" stroke="none" />
<path d="M 2.487 16.802 Q 2.884 16.59 3.096 16.988 L 3.639 18.009 Q 3.85 18.406 3.749 18.845 L 3.665 19.211 Q 3.585 19.559 3.232 19.507 L 3.232 19.507 Q 2.879 19.455 2.711 19.14 L 1.904 17.621 Q 1.692 17.224 2.09 17.013 Z" stroke="none" />
<path d="M 10.931 12.763 Q 10.356 13.246 10.874 13.788 L 12.029 14.999 Q 12.547 15.542 12.513 16.291 L 12.44 17.858 Q 12.406 18.607 13.154 18.66 L 13.154 18.66 Q 13.902 18.712 13.969 17.965 L 14.168 15.741 Q 14.235 14.994 13.784 14.394 L 12.378 12.527 Q 11.927 11.928 11.352 12.41 Z" stroke="none" />
<path d="M 13.593 18.69 Q 13.992 18.718 14.02 18.319 L 14.177 16.065 Q 14.205 15.666 13.806 15.638 L 12.929 15.576 Q 12.529 15.548 12.502 15.947 L 12.344 18.202 Q 12.316 18.601 12.715 18.629 Z" stroke="none" />
<path d="M 12.538 18.867 Q 12.569 18.418 13.018 18.45 L 14.172 18.53 Q 14.621 18.562 14.94 18.88 L 15.206 19.145 Q 15.458 19.397 15.227 19.669 L 15.227 19.669 Q 14.996 19.941 14.64 19.916 L 12.924 19.796 Q 12.475 19.765 12.507 19.316 Z" stroke="none" />
<path d="M 7.103 12.06 Q 7.321 11.787 7.671 11.787 L 11.211 11.787 Q 11.561 11.787 11.821 12.022 L 13.967 13.967 Q 14.226 14.202 13.958 14.427 L 12.464 15.68 Q 12.196 15.905 11.933 15.674 L 9.704 13.718 Q 9.441 13.487 9.215 13.754 L 7.505 15.771 Q 7.279 16.038 6.976 15.863 L 5.287 14.888 Q 4.984 14.713 5.202 14.439 Z" stroke="none" />
<path d="M 11.12 7.934 L 11.723 5.097 L 10.403 4.817 L 9.8 7.653 Z" stroke="none" />
<path d="M 7.877 8.008 Q 7.966 7.264 8.7 7.419 L 12.221 8.168 Q 12.954 8.324 12.742 9.043 L 11.804 12.217 Q 11.591 12.937 10.841 12.937 L 8.041 12.937 Q 7.291 12.937 7.38 12.192 Z" stroke="none" />
<path d="M 12.813 8.427 Q 12.368 8.75 12.713 9.178 L 14.034 10.815 Q 14.38 11.243 14.929 11.221 L 16.827 11.147 Q 17.377 11.125 17.357 10.576 L 17.357 10.576 Q 17.338 10.026 16.788 10.042 L 15.488 10.081 Q 14.938 10.097 14.644 9.633 L 13.836 8.362 Q 13.541 7.898 13.096 8.221 Z" stroke="none" />
<path d="M 12.364 8.32 Q 11.96 8.614 12.254 9.018 L 12.606 9.504 Q 12.9 9.908 13.305 9.614 L 14.073 9.056 Q 14.478 8.762 14.184 8.358 L 13.831 7.872 Q 13.538 7.468 13.133 7.762 Z" stroke="none" />
<path d="M 15.408 9.643 Q 15.408 9.143 15.908 9.143 L 17.808 9.143 Q 18.308 9.143 18.308 9.643 L 18.308 11.543 Q 18.308 12.043 17.808 12.043 L 15.908 12.043 Q 15.408 12.043 15.408 11.543 Z" stroke="none" />
<circle cx="11.063" cy="4.957" r="2.55" stroke="none" />
<path d="M 8.164 4.648 Q 8.226 4.354 8.339 4.076 L 8.491 3.698 Q 8.604 3.42 8.805 3.197 L 9.077 2.895 Q 9.278 2.672 9.543 2.531 L 9.902 2.34 Q 10.167 2.199 10.464 2.157 L 10.867 2.101 Q 11.164 2.059 11.458 2.121 L 11.856 2.206 Q 12.149 2.268 12.404 2.427 L 12.749 2.643 Q 13.004 2.802 13.188 3.038 L 13.439 3.359 Q 13.624 3.596 13.716 3.881 L 13.842 4.268 Q 13.935 4.553 13.924 4.853 L 13.91 5.26 Q 13.9 5.56 14.186 5.651 L 15.436 6.049 Q 15.719 6.138 15.568 6.394 L 15.568 6.394 Q 15.416 6.649 15.126 6.587 L 8.364 5.15 Q 8.071 5.088 8.133 4.794 Z" stroke="none" />
</g>
</g>
</svg>
