<?xml version="1.0" encoding="UTF-8"?>
<!-- 자동 생성 파일. 고치려면 src/assets/games/soccer/artwork/ 를 고치고 `npm run artwork` 를 돌린다. -->
<svg xmlns="http://www.w3.org/2000/svg" width="210mm" height="297mm" viewBox="0 0 210 297" font-family="Noto Sans KR">
<title>골프 게임판 · 11번 홀 (파 3)</title>
<g id="pc-art" fill="#1a1a1a" stroke="none">
<rect x="6" y="6" width="198" height="285" fill="#f4f9f1" stroke="#9aa3ad" stroke-width="0.4" stroke-dasharray="3 2" />
<text x="15" y="286.5" font-size="3" dominant-baseline="central" fill="#9aa3ad" text-anchor="middle">O.B.</text>
<text x="195" y="286.5" font-size="3" dominant-baseline="central" fill="#9aa3ad" text-anchor="middle">O.B.</text>
<path d="M83.03 263.1 L82.88 260.15 L82.7 256.44 L82.49 252.09 L82.26 247.21 L82.01 241.93 L81.74 236.36 L81.45 230.61 L81.16 224.8 L80.86 219.06 L80.55 213.5 L80.25 208.25 L79.95 203.42 L79.63 198.73 L79.28 193.83 L78.89 188.81 L78.5 183.75 L78.09 178.73 L77.68 173.83 L77.29 169.13 L76.91 164.7 L76.89 164.53 L77.84 156 L81.99 148.48 L88.69 143.12 L96.94 140.73 L105.47 141.68 L112.99 145.83 L118.35 152.53 L120.73 160.77 L120.75 160.97 L121.13 165.42 L121.53 170.17 L121.94 175.14 L122.36 180.25 L122.76 185.42 L123.15 190.58 L123.52 195.66 L123.85 200.58 L124.17 205.61 L124.48 211.02 L124.79 216.7 L125.1 222.53 L125.4 228.4 L125.69 234.2 L125.96 239.81 L126.21 245.12 L126.44 250 L126.65 254.33 L126.83 258 L126.97 260.9 L125.72 269.39 L121.31 276.76 L114.42 281.88 L106.1 283.97 L97.61 282.72 L90.24 278.31 L85.12 271.42 Z" fill="#ddefd8" stroke="#4f9d54" stroke-width="0.4" />
<path d="M128.2 149.5 L127.94 152.96 L127.16 156.36 L125.88 159.64 L124.11 162.75 L121.9 165.63 L119.27 168.24 L116.27 170.52 L112.95 172.45 L109.37 173.98 L105.59 175.1 L101.68 175.77 L97.7 176 L93.72 175.77 L89.81 175.1 L86.03 173.98 L82.45 172.45 L79.13 170.52 L76.13 168.24 L73.5 165.63 L71.29 162.75 L69.52 159.64 L68.24 156.36 L67.46 152.96 L67.2 149.5 L67.46 146.04 L68.24 142.64 L69.52 139.36 L71.29 136.25 L73.5 133.37 L76.13 130.76 L79.13 128.48 L82.45 126.55 L86.03 125.02 L89.81 123.9 L93.72 123.23 L97.7 123 L101.68 123.23 L105.59 123.9 L109.37 125.02 L112.95 126.55 L116.27 128.48 L119.27 130.76 L121.9 133.37 L124.11 136.25 L125.88 139.36 L127.16 142.64 L127.94 146.04 Z" fill="#ddefd8" stroke="none" />
<path d="M123.7 149.5 L123.48 152.37 L122.81 155.19 L121.72 157.92 L120.22 160.5 L118.33 162.89 L116.08 165.06 L113.53 166.95 L110.7 168.55 L107.65 169.83 L104.43 170.75 L101.09 171.31 L97.7 171.5 L94.31 171.31 L90.97 170.75 L87.75 169.83 L84.7 168.55 L81.87 166.95 L79.32 165.06 L77.07 162.89 L75.18 160.5 L73.68 157.92 L72.59 155.19 L71.92 152.37 L71.7 149.5 L71.92 146.63 L72.59 143.81 L73.68 141.08 L75.18 138.5 L77.07 136.11 L79.32 133.94 L81.87 132.05 L84.7 130.45 L87.75 129.17 L90.97 128.25 L94.31 127.69 L97.7 127.5 L101.09 127.69 L104.43 128.25 L107.65 129.17 L110.7 130.45 L113.53 132.05 L116.08 133.94 L118.33 136.11 L120.22 138.5 L121.72 141.08 L122.81 143.81 L123.48 146.63 Z" fill="#bfe2bb" stroke="#2f7d32" stroke-width="0.5" />
<path d="M68.37 133.17 L68.56 133.94 L68.59 134.75 L68.44 135.59 L68.14 136.45 L67.68 137.31 L67.07 138.16 L66.33 138.98 L65.45 139.77 L64.47 140.49 L63.39 141.15 L62.24 141.74 L61.03 142.23 L59.79 142.63 L58.53 142.92 L57.28 143.11 L56.06 143.19 L54.89 143.15 L53.78 143 L52.77 142.74 L51.87 142.37 L51.08 141.91 L50.43 141.36 L49.93 140.72 L49.58 140.01 L49.39 139.25 L49.37 138.44 L49.51 137.59 L49.81 136.74 L50.27 135.87 L50.88 135.02 L51.63 134.2 L52.5 133.42 L53.49 132.69 L54.56 132.03 L55.72 131.45 L56.93 130.95 L58.17 130.56 L59.43 130.26 L60.68 130.07 L61.9 130 L63.07 130.04 L64.17 130.19 L65.18 130.45 L66.09 130.81 L66.87 131.28 L67.52 131.83 L68.03 132.47 Z" fill="#f6efdb" stroke="#c0a05a" stroke-width="0.4" />
<circle cx="58.636" cy="135.668" r="0.5" fill="#c0a05a" stroke="none" />
<circle cx="55.388" cy="138.1" r="0.5" fill="#c0a05a" stroke="none" />
<circle cx="53.911" cy="138.481" r="0.5" fill="#c0a05a" stroke="none" />
<circle cx="64.201" cy="134.25" r="0.5" fill="#c0a05a" stroke="none" />
<circle cx="53.05" cy="138.415" r="0.5" fill="#c0a05a" stroke="none" />
<circle cx="57.657" cy="136.25" r="0.5" fill="#c0a05a" stroke="none" />
<circle cx="57.214" cy="133.704" r="0.5" fill="#c0a05a" stroke="none" />
<path d="M143.66 172.58 L143.32 173.29 L142.84 173.93 L142.23 174.5 L141.5 174.98 L140.66 175.37 L139.73 175.66 L138.72 175.85 L137.65 175.92 L136.54 175.89 L135.41 175.74 L134.27 175.49 L133.15 175.14 L132.06 174.69 L131.03 174.15 L130.07 173.53 L129.19 172.84 L128.42 172.1 L127.77 171.31 L127.24 170.49 L126.85 169.65 L126.6 168.81 L126.5 167.99 L126.55 167.18 L126.74 166.42 L127.08 165.71 L127.56 165.07 L128.17 164.5 L128.9 164.02 L129.74 163.63 L130.67 163.34 L131.68 163.15 L132.75 163.08 L133.86 163.11 L134.99 163.26 L136.13 163.51 L137.25 163.86 L138.34 164.31 L139.37 164.85 L140.33 165.47 L141.21 166.16 L141.98 166.9 L142.63 167.69 L143.16 168.51 L143.55 169.35 L143.8 170.19 L143.9 171.01 L143.85 171.82 Z" fill="#f6efdb" stroke="#c0a05a" stroke-width="0.4" />
<circle cx="137.687" cy="171.326" r="0.5" fill="#c0a05a" stroke="none" />
<circle cx="131.565" cy="166.995" r="0.5" fill="#c0a05a" stroke="none" />
<circle cx="134.806" cy="169.234" r="0.5" fill="#c0a05a" stroke="none" />
<circle cx="133.557" cy="171.914" r="0.5" fill="#c0a05a" stroke="none" />
<circle cx="138.263" cy="169.198" r="0.5" fill="#c0a05a" stroke="none" />
<circle cx="137.276" cy="173.157" r="0.5" fill="#c0a05a" stroke="none" />
<circle cx="137.159" cy="169.388" r="0.5" fill="#c0a05a" stroke="none" />
<line x1="147.231" y1="20.026" x2="147.231" y2="22.647" stroke="#3f7c43" stroke-width="0.45" />
<circle cx="147.231" cy="17.967" r="3.743" fill="#e4f0df" stroke="#3f7c43" stroke-width="0.35" />
<line x1="156.596" y1="115.819" x2="156.596" y2="118.852" stroke="#3f7c43" stroke-width="0.45" />
<circle cx="156.596" cy="113.436" r="4.332" fill="#e4f0df" stroke="#3f7c43" stroke-width="0.35" />
<line x1="185.222" y1="22.878" x2="185.222" y2="25.593" stroke="#3f7c43" stroke-width="0.45" />
<circle cx="185.222" cy="20.745" r="3.879" fill="#e4f0df" stroke="#3f7c43" stroke-width="0.35" />
<line x1="146.29" y1="64.873" x2="146.29" y2="68.427" stroke="#3f7c43" stroke-width="0.45" />
<circle cx="146.29" cy="62.081" r="5.077" fill="#e4f0df" stroke="#3f7c43" stroke-width="0.35" />
<line x1="162.677" y1="66.205" x2="162.677" y2="69.381" stroke="#3f7c43" stroke-width="0.45" />
<circle cx="162.677" cy="63.709" r="4.538" fill="#e4f0df" stroke="#3f7c43" stroke-width="0.35" />
<line x1="179.589" y1="96.423" x2="179.589" y2="98.741" stroke="#3f7c43" stroke-width="0.45" />
<circle cx="179.589" cy="94.601" r="3.312" fill="#e4f0df" stroke="#3f7c43" stroke-width="0.35" />
<line x1="160.201" y1="45.833" x2="160.201" y2="49.69" stroke="#3f7c43" stroke-width="0.45" />
<circle cx="160.201" cy="42.802" r="5.51" fill="#e4f0df" stroke="#3f7c43" stroke-width="0.35" />
<line x1="158.667" y1="98.959" x2="158.667" y2="101.474" stroke="#3f7c43" stroke-width="0.45" />
<circle cx="158.667" cy="96.983" r="3.593" fill="#e4f0df" stroke="#3f7c43" stroke-width="0.35" />
<line x1="179.342" y1="36.494" x2="179.342" y2="39.827" stroke="#3f7c43" stroke-width="0.45" />
<circle cx="179.342" cy="33.875" r="4.762" fill="#e4f0df" stroke="#3f7c43" stroke-width="0.35" />
<line x1="136.575" y1="35.615" x2="136.575" y2="38.145" stroke="#3f7c43" stroke-width="0.45" />
<circle cx="136.575" cy="33.627" r="3.614" fill="#e4f0df" stroke="#3f7c43" stroke-width="0.35" />
<line x1="198.507" y1="118.226" x2="198.507" y2="121.104" stroke="#3f7c43" stroke-width="0.45" />
<circle cx="198.507" cy="115.965" r="4.111" fill="#e4f0df" stroke="#3f7c43" stroke-width="0.35" />
<line x1="174.815" y1="15.585" x2="174.815" y2="18.46" stroke="#3f7c43" stroke-width="0.45" />
<circle cx="174.815" cy="13.325" r="4.108" fill="#e4f0df" stroke="#3f7c43" stroke-width="0.35" />
<line x1="184.21" y1="52.409" x2="184.21" y2="55.075" stroke="#3f7c43" stroke-width="0.45" />
<circle cx="184.21" cy="50.315" r="3.808" fill="#e4f0df" stroke="#3f7c43" stroke-width="0.35" />
<line x1="194.994" y1="59.361" x2="194.994" y2="62.512" stroke="#3f7c43" stroke-width="0.45" />
<circle cx="194.994" cy="56.885" r="4.501" fill="#e4f0df" stroke="#3f7c43" stroke-width="0.35" />
<line x1="169.861" y1="120.37" x2="169.861" y2="122.61" stroke="#3f7c43" stroke-width="0.45" />
<circle cx="169.861" cy="118.609" r="3.201" fill="#e4f0df" stroke="#3f7c43" stroke-width="0.35" />
<line x1="143.773" y1="109.87" x2="143.773" y2="112.016" stroke="#3f7c43" stroke-width="0.45" />
<circle cx="143.773" cy="108.183" r="3.067" fill="#e4f0df" stroke="#3f7c43" stroke-width="0.35" />
<line x1="177.897" y1="69.712" x2="177.897" y2="71.855" stroke="#3f7c43" stroke-width="0.45" />
<circle cx="177.897" cy="68.028" r="3.062" fill="#e4f0df" stroke="#3f7c43" stroke-width="0.35" />
<line x1="183.72" y1="122.381" x2="183.72" y2="125.331" stroke="#3f7c43" stroke-width="0.45" />
<circle cx="183.72" cy="120.064" r="4.214" fill="#e4f0df" stroke="#3f7c43" stroke-width="0.35" />
<line x1="35.874" y1="86.096" x2="35.874" y2="89.631" stroke="#3f7c43" stroke-width="0.45" />
<circle cx="35.874" cy="83.318" r="5.051" fill="#e4f0df" stroke="#3f7c43" stroke-width="0.35" />
<line x1="18.459" y1="95.541" x2="18.459" y2="97.79" stroke="#3f7c43" stroke-width="0.45" />
<circle cx="18.459" cy="93.774" r="3.213" fill="#e4f0df" stroke="#3f7c43" stroke-width="0.35" />
<line x1="56.62" y1="91.547" x2="56.62" y2="94.446" stroke="#3f7c43" stroke-width="0.45" />
<circle cx="56.62" cy="89.27" r="4.141" fill="#e4f0df" stroke="#3f7c43" stroke-width="0.35" />
<line x1="11.049" y1="84.986" x2="11.049" y2="87.107" stroke="#3f7c43" stroke-width="0.45" />
<circle cx="11.049" cy="83.319" r="3.03" fill="#e4f0df" stroke="#3f7c43" stroke-width="0.35" />
<line x1="23.446" y1="79.134" x2="23.446" y2="81.247" stroke="#3f7c43" stroke-width="0.45" />
<circle cx="23.446" cy="77.474" r="3.018" fill="#e4f0df" stroke="#3f7c43" stroke-width="0.35" />
<line x1="14.788" y1="70.813" x2="14.788" y2="72.916" stroke="#3f7c43" stroke-width="0.45" />
<circle cx="14.788" cy="69.161" r="3.005" fill="#e4f0df" stroke="#3f7c43" stroke-width="0.35" />
<line x1="53.314" y1="68.575" x2="53.314" y2="71.464" stroke="#3f7c43" stroke-width="0.45" />
<circle cx="53.314" cy="66.305" r="4.127" fill="#e4f0df" stroke="#3f7c43" stroke-width="0.35" />
<line x1="35.391" y1="69.51" x2="35.391" y2="71.601" stroke="#3f7c43" stroke-width="0.45" />
<circle cx="35.391" cy="67.867" r="2.987" fill="#e4f0df" stroke="#3f7c43" stroke-width="0.35" />
<line x1="38.46" y1="99.85" x2="38.46" y2="103.38" stroke="#3f7c43" stroke-width="0.45" />
<circle cx="38.46" cy="97.076" r="5.043" fill="#e4f0df" stroke="#3f7c43" stroke-width="0.35" />
<line x1="45.241" y1="75.888" x2="45.241" y2="78.127" stroke="#3f7c43" stroke-width="0.45" />
<circle cx="45.241" cy="74.128" r="3.2" fill="#e4f0df" stroke="#3f7c43" stroke-width="0.35" />
<line x1="108.132" y1="35.266" x2="108.132" y2="37.567" stroke="#3f7c43" stroke-width="0.45" />
<circle cx="108.132" cy="33.457" r="3.288" fill="#e4f0df" stroke="#3f7c43" stroke-width="0.35" />
<line x1="48.782" y1="196.404" x2="48.782" y2="198.718" stroke="#3f7c43" stroke-width="0.45" />
<circle cx="48.782" cy="194.586" r="3.306" fill="#e4f0df" stroke="#3f7c43" stroke-width="0.35" />
<line x1="71.247" y1="257.166" x2="71.247" y2="260.85" stroke="#3f7c43" stroke-width="0.45" />
<circle cx="71.247" cy="254.272" r="5.262" fill="#e4f0df" stroke="#3f7c43" stroke-width="0.35" />
<line x1="35.17" y1="249.718" x2="35.17" y2="252.676" stroke="#3f7c43" stroke-width="0.45" />
<circle cx="35.17" cy="247.394" r="4.225" fill="#e4f0df" stroke="#3f7c43" stroke-width="0.35" />
<line x1="94.937" y1="90.35" x2="94.937" y2="93.616" stroke="#3f7c43" stroke-width="0.45" />
<circle cx="94.937" cy="87.785" r="4.665" fill="#e4f0df" stroke="#3f7c43" stroke-width="0.35" />
<line x1="139.488" y1="251.641" x2="139.488" y2="255.408" stroke="#3f7c43" stroke-width="0.45" />
<circle cx="139.488" cy="248.682" r="5.38" fill="#e4f0df" stroke="#3f7c43" stroke-width="0.35" />
<line x1="42.556" y1="285.653" x2="42.556" y2="287.754" stroke="#3f7c43" stroke-width="0.45" />
<circle cx="42.556" cy="284.002" r="3.002" fill="#e4f0df" stroke="#3f7c43" stroke-width="0.35" />
<line x1="120.938" y1="108.795" x2="120.938" y2="111.505" stroke="#3f7c43" stroke-width="0.45" />
<circle cx="120.938" cy="106.665" r="3.871" fill="#e4f0df" stroke="#3f7c43" stroke-width="0.35" />
<line x1="65.887" y1="279.448" x2="65.887" y2="281.616" stroke="#3f7c43" stroke-width="0.45" />
<circle cx="65.887" cy="277.744" r="3.097" fill="#e4f0df" stroke="#3f7c43" stroke-width="0.35" />
<line x1="79.941" y1="29.555" x2="79.941" y2="32.072" stroke="#3f7c43" stroke-width="0.45" />
<circle cx="79.941" cy="27.576" r="3.597" fill="#e4f0df" stroke="#3f7c43" stroke-width="0.35" />
<line x1="160.754" y1="213.765" x2="160.754" y2="217.51" stroke="#3f7c43" stroke-width="0.45" />
<circle cx="160.754" cy="210.823" r="5.35" fill="#e4f0df" stroke="#3f7c43" stroke-width="0.35" />
<line x1="163.01" y1="187.084" x2="163.01" y2="189.081" stroke="#3f7c43" stroke-width="0.45" />
<circle cx="163.01" cy="185.515" r="2.853" fill="#e4f0df" stroke="#3f7c43" stroke-width="0.35" />
<line x1="21.27" y1="141.267" x2="21.27" y2="144.52" stroke="#3f7c43" stroke-width="0.45" />
<circle cx="21.27" cy="138.711" r="4.647" fill="#e4f0df" stroke="#3f7c43" stroke-width="0.35" />
<line x1="188.966" y1="148.519" x2="188.966" y2="151.801" stroke="#3f7c43" stroke-width="0.45" />
<circle cx="188.966" cy="145.94" r="4.688" fill="#e4f0df" stroke="#3f7c43" stroke-width="0.35" />
<path d="M92.33 269.12 L91.7 256.14 L117.67 254.88 L118.3 267.86 Z" fill="#ffffff" stroke="#4f9d54" stroke-width="0.4" />
<circle cx="97" cy="262" r="1.4" fill="#4f9d54" stroke="none" />
<circle cx="113" cy="262" r="1.4" fill="#4f9d54" stroke="none" />
<text x="105" y="271.5" font-size="3" dominant-baseline="central" fill="#6b7280" text-anchor="middle">티</text>
<circle cx="97.7" cy="144.5" r="8" fill="#ffffff" stroke="#1a1a1a" stroke-width="0.5" />
<circle cx="97.7" cy="144.5" r="2.4" fill="#1a1a1a" stroke="none" />
<line x1="97.7" y1="144.5" x2="97.7" y2="128.5" stroke="#1a1a1a" stroke-width="0.6" />
<path d="M97.7 128.5 L106.7 131.5 L97.7 134.5 Z" fill="#1a1a1a" stroke="none" />
<rect x="9" y="9" width="52" height="52" fill="#ffffff" stroke="#6b7280" stroke-width="0.4" rx="2.5" />
<text x="19" y="23" font-size="12" dominant-baseline="central" text-anchor="middle" font-weight="bold">11</text>
<text x="19" y="30.5" font-size="2.6" dominant-baseline="central" fill="#6b7280" text-anchor="middle">번 홀</text>
<text x="28" y="20" font-size="4.6" dominant-baseline="central" text-anchor="start" font-weight="bold">소나무 곁</text>
<text x="28" y="27.5" font-size="3.2" dominant-baseline="central" fill="#6b7280" text-anchor="start">파 3 · 160야드</text>
<line x1="13" y1="33" x2="57" y2="33" stroke="#6b7280" stroke-width="0.25" />
<line x1="13" y1="54" x2="57" y2="54" stroke="#6b7280" stroke-width="0.25" />
<text x="15" y="38.5" font-size="3" dominant-baseline="central" text-anchor="start" fill="#6b7280">1타 홀인원</text>
<text x="15" y="44.5" font-size="3" dominant-baseline="central" text-anchor="start" fill="#6b7280">2타 버디</text>
<text x="15" y="50.5" font-size="3" dominant-baseline="central" text-anchor="start" font-weight="bold" fill="#1a1a1a">3타 파</text>
<text x="37" y="38.5" font-size="3" dominant-baseline="central" text-anchor="start" fill="#6b7280">4타 보기</text>
<text x="37" y="44.5" font-size="3" dominant-baseline="central" text-anchor="start" fill="#6b7280">5타 더블보기</text>
<line x1="17" y1="60" x2="53" y2="60" stroke="#6b7280" stroke-width="0.25" />
</g>
<g id="pc-slot" />
</svg>
